<?xml version="1.0" encoding="utf-8"?>
<!-- Generator: Adobe Illustrator 26.2.1, SVG Export Plug-In . SVG Version: 6.00 Build 0)  -->
<svg version="1.1" id="Layer_1" xmlns="http://www.w3.org/2000/svg" xmlns:xlink="http://www.w3.org/1999/xlink" x="0px" y="0px"
	 viewBox="0 0 1080 1080" style="enable-background:new 0 0 1080 1080;" xml:space="preserve">
<style type="text/css">
	.st0{fill:#FFFFFF;}
</style>
<g>
	<path class="st0" d="M236.86,303.66c-13.23-13.67-29.54-22.62-48.95-26.89c-19.4-4.26-41.42-3.09-66.03,3.5l-16.05,4.3l16.27,60.73
		l26.61-7.1c10.28-2.75,18.97-3.06,26.06-0.93c7.09,2.13,12.86,5.55,17.31,10.25c4.45,4.7,7.86,9.6,10.24,14.7
		c2.38,5.1,4,9.24,4.85,12.42c1.09,4.05,1.62,9.03,1.61,14.92c-0.02,5.9-1.04,11.83-3.06,17.8c-2.03,5.97-5.57,11.42-10.62,16.34
		c-5.06,4.93-12.05,8.58-20.98,10.97l-41.79,11.2L90.19,288.77l-58.78,15.75L117,623.94l58.83-15.76l-27.1-101.12l42.19-11.31
		c19.47-5.22,35.03-12.88,46.68-22.97s20.02-21.56,25.13-34.41c5.11-12.84,7.73-26.33,7.85-40.48c0.12-14.14-1.56-27.72-5.05-40.74
		C259.65,335.16,250.09,317.33,236.86,303.66z"/>
	<path class="st0" d="M295.64,300.7c-2.4-8.96-1.07-17.23,4.01-24.8c5.07-7.56,11.4-12.36,18.97-14.39c7.57-2.03,15.31-1,23.22,3.08
		c7.9,4.09,13.06,10.61,15.47,19.58c2.4,8.97,1.18,17.13-3.66,24.47c-4.85,7.34-11.06,12.03-18.63,14.06
		c-7.58,2.03-15.43,1.11-23.57-2.76C303.31,316.09,298.04,309.67,295.64,300.7z M314.88,367.65l56.8-15.22l50.82,189.66l-56.8,15.22
		L314.88,367.65z"/>
	<path class="st0" d="M389.17,184.01l56.8-15.22l91.75,342.42l-56.8,15.22L389.17,184.01z"/>
	<path class="st0" d="M504.39,153.13l56.8-15.22l91.75,342.42l-56.8,15.22L504.39,153.13z"/>
</g>
<g>
	<path class="st0" d="M144.56,641.36l201.23-53.92l16.28,60.76l-72.62,19.46l69.31,258.66l-58.83,15.76l-69.31-258.66l-69.78,18.7
		L144.56,641.36z"/>
	<path class="st0" d="M514.33,890.22c-16.5,4.42-32.39,4.88-47.68,1.38c-15.29-3.5-28.83-11.58-40.63-24.23
		c-11.8-12.65-20.76-30.41-26.88-53.27c-5.74-21.41-6.64-41.02-2.71-58.81c3.93-17.8,11.37-32.74,22.34-44.83
		c10.96-12.08,23.88-20.12,38.76-24.11c17.58-4.71,31.73-5.17,42.46-1.38c10.73,3.8,20.07,8.66,28.04,14.58l-0.46,8.03l-2.17-29.19
		l52.74-14.13l50.82,189.66l-56.8,15.22l-11.05-41.23l7.95,11.82c-0.54,0.15-1.72,2.25-3.53,6.29c-1.82,4.05-4.75,9.03-8.83,14.93
		c-4.07,5.9-9.52,11.55-16.33,16.93C533.56,883.28,524.88,887.39,514.33,890.22z M517.3,836.4c6.76-1.81,12.55-4.53,17.38-8.15
		c4.82-3.62,8.71-8.07,11.64-13.35c2.93-5.28,5.03-11.5,6.3-18.67l-12.44-46.44c-3.87-5.78-8.57-10.34-14.1-13.67
		c-5.53-3.32-11.6-5.42-18.21-6.28c-6.61-0.86-13.57-0.32-20.87,1.64c-8.11,2.17-15.02,6.43-20.72,12.76
		c-5.69,6.34-9.52,13.95-11.49,22.85c-1.96,8.9-1.59,18.41,1.12,28.54c2.71,10.13,7.32,18.67,13.82,25.6
		c6.49,6.95,13.95,11.77,22.36,14.48C500.52,838.42,508.92,838.64,517.3,836.4z"/>
	<path class="st0" d="M687.39,838.27l-91.75-342.42l56.8-15.22l91.75,342.42L687.39,838.27z M713.08,775.1l-21.15-56.2l84.55-112.89
		l43.21,23.31L713.08,775.1z M754.69,682.08l114.87,107.37l-66.13,17.72l-76.76-80.37L754.69,682.08z"/>
	<path class="st0" d="M993.9,761.54c-21.64,5.8-41.13,6.37-58.46,1.71c-17.34-4.66-31.98-13.6-43.93-26.84
		c-11.96-13.23-20.61-29.83-25.95-49.79c-5.12-19.1-5.13-37.54-0.04-55.34c5.08-17.79,14.12-33.32,27.09-46.56
		c12.98-13.25,28.93-22.4,47.86-27.48c25.42-6.81,48.43-4.52,69.02,6.86c20.59,11.39,37.31,31.33,50.16,59.82l-108.83,72.76
		c0,0-6.44-3.7-12.67-12.34s-7.38-18.68-7.38-18.68l72.23-50.29l-10.25,8.8c-4.18-6.94-9.8-12.49-16.85-16.65
		c-7.06-4.15-16.13-4.75-27.22-1.78c-8.39,2.25-15.2,6.32-20.42,12.22c-5.23,5.9-8.51,13.14-9.84,21.71
		c-1.33,8.58-0.59,18.07,2.2,28.48c3.18,11.87,7.86,21.23,14.05,28.1c6.19,6.87,13.34,11.39,21.46,13.55
		c8.12,2.17,16.5,2.09,25.16-0.23c6.22-1.67,11.93-4.43,17.12-8.31c5.19-3.87,10.13-8.45,14.8-13.73l37.25,38.4
		c-7.92,8.33-16.89,15.69-26.91,22.1C1013.52,754.42,1003.64,758.93,993.9,761.54z"/>
</g>
<path class="st0" d="M601.52,514.34"/>
</svg>
